<svg width="196" height="114" viewBox="0 0 196 114" fill="none" xmlns="http://www.w3.org/2000/svg">
<path d="M44.8164 53H40.1987V36.8979H22.6372V53H18.0435V18.1641H22.6372V33.1416H40.1987V18.1641H44.8164V53ZM54.6208 53H50.0271V18.1641H54.6208V53Z" fill="white"/>
<path d="M17.8091 61.0205H27.6904C32.332 61.0205 35.6896 61.7144 37.7632 63.1021C39.8368 64.4897 40.8735 66.6829 40.8735 69.6816C40.8735 71.7552 40.2913 73.4699 39.127 74.8257C37.9785 76.1655 36.2957 77.0348 34.0786 77.4336V77.6729C39.3901 78.582 42.0459 81.3734 42.0459 86.0469C42.0459 89.1732 40.9852 91.6136 38.8638 93.3682C36.7583 95.1227 33.8075 96 30.0112 96H17.8091V61.0205ZM21.8765 75.998H28.5757C31.4468 75.998 33.5124 75.5514 34.7725 74.6582C36.0326 73.749 36.6626 72.2257 36.6626 70.0884C36.6626 68.1265 35.9608 66.7148 34.5571 65.8535C33.1535 64.9762 30.9204 64.5376 27.8579 64.5376H21.8765V75.998ZM21.8765 79.4434V92.5308H29.1738C31.9971 92.5308 34.1185 91.9884 35.5381 90.9038C36.9736 89.8032 37.6914 88.0885 37.6914 85.7598C37.6914 83.5905 36.9577 81.9954 35.4902 80.9746C34.0387 79.9538 31.8216 79.4434 28.8389 79.4434H21.8765ZM54.0419 81.4531V96H49.9745V61.0205H59.5688C63.8594 61.0205 67.0256 61.842 69.0673 63.4849C71.1249 65.1278 72.1537 67.6001 72.1537 70.9019C72.1537 75.5275 69.809 78.6538 65.1195 80.2808L74.6181 96H69.809L61.3393 81.4531H54.0419ZM54.0419 77.96H59.6166C62.4877 77.96 64.5932 77.3937 65.933 76.2612C67.2729 75.1128 67.9428 73.3981 67.9428 71.1172C67.9428 68.8044 67.2569 67.1375 65.8852 66.1167C64.5294 65.0959 62.3441 64.5854 59.3295 64.5854H54.0419V77.96ZM102.644 96L98.2899 84.8745H84.2693L79.9627 96H75.8475L89.6766 60.877H93.098L106.855 96H102.644ZM97.0218 81.2139L92.9544 70.3755C92.428 69.0037 91.8857 67.321 91.3275 65.3271C90.9765 66.8584 90.4741 68.5412 89.8201 70.3755L85.7049 81.2139H97.0218ZM139.38 96H134.738L115.621 66.6431H115.43C115.685 70.0884 115.813 73.2466 115.813 76.1177V96H112.056V61.0205H116.65L135.719 90.2578H135.91C135.878 89.8271 135.807 88.4474 135.695 86.1187C135.583 83.7739 135.544 82.0991 135.575 81.0942V61.0205H139.38V96ZM177.311 78.1753C177.311 83.9494 175.74 88.3677 172.598 91.4302C169.471 94.4767 164.965 96 159.08 96H149.39V61.0205H160.109C165.548 61.0205 169.775 62.5278 172.789 65.5425C175.804 68.5571 177.311 72.7681 177.311 78.1753ZM173.005 78.3188C173.005 73.757 171.856 70.3197 169.559 68.0068C167.278 65.694 163.881 64.5376 159.367 64.5376H153.457V92.4829H158.41C163.259 92.4829 166.903 91.2946 169.344 88.918C171.784 86.5254 173.005 82.9924 173.005 78.3188Z" fill="white"/>
<rect x="50" y="44" width="4.64" height="19" fill="white"/>
<rect x="2.5" y="2.5" width="191" height="109" stroke="white" stroke-width="5"/>
</svg>
